# xmcd CD database file
#
# Track frame offsets:
#        150
#        20186
#        41025
#        61061
#
# Disc length: 1090 seconds
#
# Revision: 0
# Processed by: cddbd v1.5.2PL0 Copyright (c) Steve Scherf et al.
# Submitted via: CUERipper 2.1.5
#
DISCID=30044004
DTITLE=ヒビキ&レン(CV.山村響&吉岡茉祐) - あんハピ♪キャラクターソングシリーズ5
DYEAR=2016
DGENRE=
TTITLE0=Sinfonietta
TTITLE1=春夏秋冬ハッピーデイズ♪ (ヒビキレンver.)
TTITLE2=Sinfonietta (Instrumental)
TTITLE3=春夏秋冬ハッピーデイズ♪ (ヒビキレンver.) (Instrumental)
EXTD=
EXTT0=
EXTT1=
EXTT2=
EXTT3=
PLAYORDER=
